<?xml version="1.0" encoding="UTF-8"?>
<svg width="24px" height="24px" viewBox="0 0 24 24" version="1.1" xmlns="http://www.w3.org/2000/svg" xmlns:xlink="http://www.w3.org/1999/xlink">
    <title>Iconly/Curved/Folder</title>
    <g id="Raw-File" stroke="none" stroke-width="1" fill="none" fill-rule="evenodd">
        <g id="Home" transform="translate(-301.000000, -733.000000)">
            <g id="Group-682" transform="translate(29.000000, 708.000000)">
                <g id="Group-681" transform="translate(20.000000, 12.000000)">
                    <g id="Iconly/Curved/Folder" transform="translate(252.000000, 13.000000)">
                        <path d="M0,0 L24,0 L24,24 L0,24 L0,0 Z" id="Iconly/Curved/Folder-(Background)"></path>
                        <g id="Folder" transform="translate(2.500000, 2.500000)" stroke="#C6CEDD" stroke-dasharray="0,0" stroke-linecap="round" stroke-linejoin="round" stroke-width="1.5">
                            <line x1="4.80566406" y1="12.0738467" x2="14.3986645" y2="12.0738467" id="Stroke-1"></line>
                            <path d="M3.62199998,0.272650242 C5.99300003,-0.214968801 7.79499984,-0.046397388 9.29199982,0.761221647 C10.7899998,1.56884068 10.3609996,2.76122171 11.8999996,3.63645983 C13.4399996,4.51265031 15.9169998,3.19645965 17.5349998,4.94217396 C19.2289999,6.76979303 19.2200012,9.57550704 19.2200012,11.3640785 C19.2200012,18.1602688 15.4129996,18.699316 9.60999966,18.699316 C3.80699968,18.699316 0,18.2288404 0,11.3640785 L0,5.29836464 C0,2.85645986 1.25,0.759316921 3.62199998,0.272650242 Z" id="Stroke-2"></path>
                        </g>
                    </g>
                </g>
            </g>
        </g>
    </g>
</svg>